<?xml version="1.0" encoding="utf-8"?>
<!-- Generator: Adobe Illustrator 18.1.1, SVG Export Plug-In . SVG Version: 6.00 Build 0)  -->
<svg version="1.1" id="Layer_1" xmlns="http://www.w3.org/2000/svg" xmlns:xlink="http://www.w3.org/1999/xlink" x="0px" y="0px"
	 viewBox="0 0 256 256" enable-background="new 0 0 256 256" xml:space="preserve">
<g id="Visual-design">
	<g id="_x31_-Desktop-_x28_1366x768_x29_---COOKIE-NOTIFICATION-Copy-4" transform="translate(-1035.000000, -496.000000)">
		<g id="non-modal_share-options" transform="translate(871.000000, 445.000000)">
			<g id="Group" transform="translate(43.000000, 36.000000)">
				<g id="ic_email" transform="translate(121.000000, 15.000000)">
					<g id="Group-2">
						<path id="mail-path" d="M1,199.5c-0.7-1.6-1.1-3.3-1.1-5.1V61.6c0-2,0.5-3.8,1.3-5.5l0,0l80.7,71.4L1,199.5L1,199.5z"/>
						<path id="mail-path_1_" d="M255.2,57c0.6,1.4,0.9,3,0.9,4.7v132.8c0,1.4-0.2,2.8-0.7,4.1l-80.2-71.4L255.2,57L255.2,57z"/>
						<path id="mail-path_2_" d="M128.7,149L11.7,45c2.1-1.5,4.7-2.4,7.5-2.4h217.7c3.1,0,6,1.1,8.2,2.9L128.7,149L128.7,149z"/>
						<path id="mail-path_3_" d="M127.3,168.3l-34.2-30.2L11,210.5c2.2,1.8,5,2.9,8.1,2.9h217.7c3.4,0,6.6-1.4,8.9-3.6l-81.8-72.2
							L128,169.1L127.3,168.3L127.3,168.3z"/>
					</g>
				</g>
			</g>
		</g>
	</g>
</g>
</svg>
