<?xml version="1.0" encoding="utf-8"?>
<!-- Generated by IcoMoon.io -->
<!DOCTYPE svg PUBLIC "-//W3C//DTD SVG 1.1//EN" "http://www.w3.org/Graphics/SVG/1.1/DTD/svg11.dtd">
<svg version="1.1" xmlns="http://www.w3.org/2000/svg" xmlns:xlink="http://www.w3.org/1999/xlink" width="512" height="512" viewBox="0 0 512 512">
<g id="icomoon-ignore">
</g>
<path d="M464 64h-416c-26.4 0-48 21.6-48 48v320c0 26.4 21.6 48 48 48h416c26.4 0 48-21.6 48-48v-320c0-26.4-21.6-48-48-48zM199.37 275.186l-135.37 105.446v-250.821l135.37 145.375zM88.19 128h335.62l-167.81 126-167.81-126zM204.644 280.849l51.356 55.151 51.355-55.151 105.277 135.151h-313.264l105.276-135.151zM312.63 275.186l135.37-145.375v250.821l-135.37-105.446z"></path>
</svg>
