<?xml version="1.0" encoding="utf-8"?>
<!-- Generator: Adobe Illustrator 18.1.1, SVG Export Plug-In . SVG Version: 6.00 Build 0)  -->
<svg version="1.1" id="Layer_1" xmlns="http://www.w3.org/2000/svg" xmlns:xlink="http://www.w3.org/1999/xlink" x="0px" y="0px"
	 viewBox="-619 385 256 256" enable-background="new -619 385 256 256" xml:space="preserve">
<title>Search icon</title>
<desc>Created with Sketch.</desc>
<g id="Posters:-variaties-en-Acties">
	<g id="Posters-Copy" transform="translate(-61.000000, -270.000000)">
		<g id="Search-bar" transform="translate(37.000000, 235.000000)">
			<g id="Search-icon" transform="translate(24.741641, 35.000000)">
				<path id="Combined-Shape" d="M-431.4,485.7c0-46.6-37.3-84.4-83.2-84.4s-83.2,37.8-83.2,84.4s37.3,84.4,83.2,84.4
					S-431.4,532.3-431.4,485.7z M-569.2,485.7c0-30.6,24.4-55.4,54.6-55.4c30.1,0,54.6,24.8,54.6,55.4s-24.4,55.4-54.6,55.4
					C-544.8,541-569.2,516.2-569.2,485.7z M-405,624.8l20.3-20.6l-76.2-77.4l-20.3,20.6L-405,624.8z"/>
			</g>
		</g>
	</g>
</g>
</svg>
